<?xml version="1.0" encoding="UTF-8"?>
<svg version="1.1" xmlns="http://www.w3.org/2000/svg" width="1280" height="640">
<path d="M0 0 C422.4 0 844.8 0 1280 0 C1280 211.2 1280 422.4 1280 640 C857.6 640 435.2 640 0 640 C0 428.8 0 217.6 0 0 Z " fill="#000065" transform="translate(0,0)"/>
<path d="M0 0 C211.2 0 422.4 0 640 0 C640 105.6 640 211.2 640 320 C217.6 320 -204.8 320 -640 320 C-640 229.58 -640 139.16 -640 46 C-428.8 46 -217.6 46 0 46 C0 30.82 0 15.64 0 0 Z " fill="#FEFCFC" transform="translate(640,320)"/>
<path d="M0 0 C211.2 0 422.4 0 640 0 C640 90.42 640 180.84 640 274 C428.8 274 217.6 274 0 274 C0 183.58 0 93.16 0 0 Z " fill="#CC0202" transform="translate(640,0)"/>
<path d="M0 0 C211.2 0 422.4 0 640 0 C640 45.21 640 90.42 640 137 C217.6 137 -204.8 137 -640 137 C-640 106.97 -640 76.94 -640 46 C-428.8 46 -217.6 46 0 46 C0 30.82 0 15.64 0 0 Z " fill="#CC0000" transform="translate(640,320)"/>
<path d="M0 0 C211.2 0 422.4 0 640 0 C640 45.21 640 90.42 640 137 C428.8 137 217.6 137 0 137 C0 91.79 0 46.58 0 0 Z " fill="#CC0202" transform="translate(640,0)"/>
<path d="M0 0 C422.4 0 844.8 0 1280 0 C1280 15.18 1280 30.36 1280 46 C857.6 46 435.2 46 0 46 C0 30.82 0 15.64 0 0 Z " fill="#FEFDFD" transform="translate(0,594)"/>
<path d="M0 0 C422.4 0 844.8 0 1280 0 C1280 15.18 1280 30.36 1280 46 C857.6 46 435.2 46 0 46 C0 30.82 0 15.64 0 0 Z " fill="#CC0101" transform="translate(0,457)"/>
<path d="M0 0 C422.4 0 844.8 0 1280 0 C1280 15.18 1280 30.36 1280 46 C857.6 46 435.2 46 0 46 C0 30.82 0 15.64 0 0 Z " fill="#FEFCFC" transform="translate(0,411)"/>
<path d="M0 0 C422.4 0 844.8 0 1280 0 C1280 14.85 1280 29.7 1280 45 C857.6 45 435.2 45 0 45 C0 30.15 0 15.3 0 0 Z " fill="#CC0000" transform="translate(0,549)"/>
<path d="M0 0 C211.2 0 422.4 0 640 0 C640 15.18 640 30.36 640 46 C428.8 46 217.6 46 0 46 C0 30.82 0 15.64 0 0 Z " fill="#FEFDFD" transform="translate(640,320)"/>
<path d="M0 0 C211.2 0 422.4 0 640 0 C640 15.18 640 30.36 640 46 C428.8 46 217.6 46 0 46 C0 30.82 0 15.64 0 0 Z " fill="#CC0101" transform="translate(640,274)"/>
<path d="M0 0 C211.2 0 422.4 0 640 0 C640 15.18 640 30.36 640 46 C428.8 46 217.6 46 0 46 C0 30.82 0 15.64 0 0 Z " fill="#FEFDFD" transform="translate(640,137)"/>
<path d="M0 0 C211.2 0 422.4 0 640 0 C640 15.18 640 30.36 640 46 C428.8 46 217.6 46 0 46 C0 30.82 0 15.64 0 0 Z " fill="#CC0101" transform="translate(640,0)"/>
<path d="M0 0 C211.2 0 422.4 0 640 0 C640 14.85 640 29.7 640 45 C428.8 45 217.6 45 0 45 C0 30.15 0 15.3 0 0 Z " fill="#FFFFFF" transform="translate(640,229)"/>
<path d="M0 0 C211.2 0 422.4 0 640 0 C640 14.85 640 29.7 640 45 C428.8 45 217.6 45 0 45 C0 30.15 0 15.3 0 0 Z " fill="#FFFFFF" transform="translate(640,46)"/>
<path d="M0 0 C0.66 0 1.32 0 2 0 C2.24121582 1.87981567 2.24121582 1.87981567 2.48730469 3.79760742 C3.09973221 8.55674912 3.72061758 13.31475891 4.34375 18.07250977 C4.60964233 20.11128391 4.87339861 22.15033805 5.13476562 24.18969727 C6.93719359 38.23823679 9.18864511 52.11735631 12 66 C19.26265734 55.68505538 26.47533154 45.3433046 33.4453125 34.828125 C33.89793457 34.14565704 34.35055664 33.46318909 34.81689453 32.76004028 C37.05946267 29.37526185 39.2948175 25.98592658 41.52246094 22.59130859 C42.34560783 21.34466363 43.16884557 20.09807866 43.9921875 18.8515625 C44.55681198 17.98437592 44.55681198 17.98437592 45.13284302 17.09967041 C47.77368504 13.11315748 47.77368504 13.11315748 50 12 C47.98862513 20.82682918 45.32651401 29.36781628 42.41372681 37.92800903 C41.18038945 41.55297498 39.96198679 45.18296082 38.7421875 48.8125 C38.50363541 49.52112686 38.26508331 50.22975372 38.01930237 50.95985413 C35.22721105 59.26954741 32.5998153 67.62857066 30 76 C30.84965332 75.5138623 31.69930664 75.02772461 32.57470703 74.52685547 C38.687228 71.03101883 44.80328099 67.54176726 50.9296875 64.0703125 C53.24515045 62.75583392 55.56032066 61.44085629 57.875 60.125 C58.47785828 59.78260284 59.08071655 59.44020569 59.70184326 59.08743286 C67.78978008 54.48792508 75.80179833 49.80149363 83.55810547 44.65478516 C85.00347264 43.71335982 86.49717581 42.84669202 88 42 C88.66 42.33 89.32 42.66 90 43 C89.07058594 43.9178125 88.14117187 44.835625 87.18359375 45.78125 C78.62151818 54.25604516 78.62151818 54.25604516 70.5703125 63.2109375 C68.17173908 65.94364055 65.55854065 68.45005228 62.96875 71 C60.45211872 73.55657781 58.13581839 76.2589427 55.80078125 78.98046875 C53.22840313 81.86532664 50.4746866 84.55005797 47.69921875 87.23828125 C45.80910864 89.09309306 45.80910864 89.09309306 44 92 C44.65208939 91.9498877 45.30417877 91.89977539 45.97602844 91.84814453 C52.80599154 91.32409675 59.63638185 90.80590923 66.46704102 90.29101562 C69.01109891 90.09848709 71.55504685 89.90449959 74.09887695 89.70898438 C77.77006045 89.42708351 81.44161651 89.15055341 85.11328125 88.875 C86.23769119 88.78750488 87.36210114 88.70000977 88.52058411 88.60986328 C95.36189686 88.10270963 102.14042108 87.89196585 109 88 C106.73625628 90.26374372 105.07518811 90.88499361 102.09472656 92.01538086 C101.07316467 92.40596176 100.05160278 92.79654266 98.99908447 93.19895935 C97.33664703 93.82557213 97.33664703 93.82557213 95.640625 94.46484375 C93.9349234 95.11580772 93.9349234 95.11580772 92.19476318 95.77992249 C88.54842039 97.17086427 84.89943049 98.55468173 81.25 99.9375 C77.61515625 101.31751907 73.98093487 102.69911003 70.3480835 104.08436584 C68.08552272 104.94685056 65.82177097 105.80621904 63.55670166 106.66209412 C58.56883191 108.56109353 53.70417965 110.4723431 49 113 C69.26373954 121.18012148 89.62327916 129.10660818 110 137 C110 137.33 110 137.66 110 138 C94.60540034 137.54116815 79.31654367 136.4298941 63.98510742 135.01635742 C63.25180206 134.94991028 62.5184967 134.88346313 61.76296997 134.81500244 C59.76038795 134.63304065 57.75822862 134.44644371 55.75610352 134.25952148 C51.8135279 133.98711603 47.95015089 133.95647745 44 134 C44.37584229 134.40089844 44.75168457 134.80179688 45.13891602 135.21484375 C59.75927734 150.80989583 74.37963867 166.40494792 89 182 C85.4257013 182 84.10386318 181.10990072 81.0390625 179.31640625 C80.02312012 178.72609619 79.00717773 178.13578613 77.96044922 177.52758789 C76.85975098 176.87910889 75.75905273 176.23062988 74.625 175.5625 C73.4920752 174.9017749 72.35915039 174.2410498 71.19189453 173.56030273 C68.11077081 171.76304687 65.03452616 169.9575929 61.95922852 168.15039062 C58.584661 166.16896232 55.20607237 164.19440868 51.828125 162.21875 C44.88078612 158.15370167 37.9388953 154.07944387 31 150 C33.05538725 157.79631928 35.36559391 165.48364196 37.828125 173.16015625 C38.55238963 175.43935581 39.27633914 177.71865554 40 179.99804688 C41.13145862 183.55437759 42.26520098 187.10992591 43.40429688 190.66381836 C44.51051743 194.1188666 45.6075521 197.57671949 46.703125 201.03515625 C47.04885559 202.10588882 47.39458618 203.1766214 47.75079346 204.27980042 C48.06151794 205.26520309 48.37224243 206.25060577 48.69238281 207.26586914 C48.96979309 208.13425919 49.24720337 209.00264923 49.53302002 209.89735413 C50 212 50 212 49 214 C36.53066318 195.75637092 24.22898125 177.40542696 12 159 C9.40099532 174.09273635 6.81953208 189.16605382 4.98901367 204.37524414 C4.22747477 210.6331589 3.18562375 216.80857366 2 223 C1.34 223 0.68 223 0 223 C-0.09498779 222.34966797 -0.18997559 221.69933594 -0.2878418 221.02929688 C-2.35819893 206.88451861 -4.48442392 192.74966336 -6.6875 178.625 C-6.7957309 177.92882568 -6.90396179 177.23265137 -7.01547241 176.51538086 C-7.32548059 174.5230813 -7.63731552 172.53106626 -7.94921875 170.5390625 C-8.12799561 169.39646973 -8.30677246 168.25387695 -8.4909668 167.07666016 C-8.93879156 164.36995146 -9.44218781 161.68590175 -10 159 C-10.5168335 159.77786865 -11.03366699 160.5557373 -11.56616211 161.35717773 C-23.27686776 178.97430973 -35.06301311 196.53524109 -47 214 C-48.56338198 210.87323603 -47.00242645 208.18563192 -45.97265625 205.02734375 C-45.74846008 204.32017212 -45.52426392 203.61300049 -45.29327393 202.88439941 C-44.55657721 200.56650462 -43.80954194 198.25207906 -43.0625 195.9375 C-42.55619637 194.34991013 -42.05058418 192.76209959 -41.5456543 191.17407227 C-40.04001654 186.44628484 -38.52163192 181.72266038 -37 177 C-36.56313711 175.64323365 -36.12628741 174.28646306 -35.68945312 172.9296875 C-35.09293945 171.07730469 -35.09293945 171.07730469 -34.484375 169.1875 C-34.1143335 168.03644775 -33.74429199 166.88539551 -33.36303711 165.69946289 C-32.67468159 163.56208942 -31.98291066 161.42581221 -31.28735352 159.29077148 C-30.98240967 158.34790283 -30.67746582 157.40503418 -30.36328125 156.43359375 C-30.09813721 155.61947021 -29.83299316 154.80534668 -29.55981445 153.96655273 C-28.90873648 152.02018378 -28.90873648 152.02018378 -29 150 C-32.77261515 152.16357433 -36.5430168 154.33097375 -40.3125 156.5 C-40.88624359 156.83003021 -41.45998718 157.16006042 -42.05111694 157.50009155 C-48.91524332 161.45123491 -55.75883582 165.43378223 -62.5625 169.48828125 C-63.1733696 169.85206879 -63.7842392 170.21585632 -64.41362 170.59066772 C-67.37120266 172.35325927 -70.32573659 174.12073368 -73.27661133 175.89453125 C-74.3467749 176.53390625 -75.41693848 177.17328125 -76.51953125 177.83203125 C-77.92875854 178.67858276 -77.92875854 178.67858276 -79.36645508 179.54223633 C-81.8611854 180.92316103 -84.33015989 182.00753369 -87 183 C-78.08769308 172.35474451 -68.41276955 162.36092933 -58.88916016 152.26635742 C-53.20074517 146.23041647 -47.58031787 140.13598512 -42 134 C-48.74691027 133.90312129 -55.34466415 134.2723094 -62.0625 134.875 C-63.09383057 134.96378418 -64.12516113 135.05256836 -65.18774414 135.14404297 C-68.45882354 135.42572956 -71.72944915 135.7122456 -75 136 C-79.31213249 136.37939636 -83.62466188 136.7537206 -87.9375 137.125 C-88.91275635 137.21249512 -89.8880127 137.29999023 -90.89282227 137.39013672 C-96.62047941 137.88267857 -102.25103228 138.08254928 -108 138 C-104.48104469 134.9595091 -100.52525265 133.50155851 -96.21875 131.92578125 C-95.45616379 131.64052078 -94.69357758 131.35526031 -93.90788269 131.06135559 C-92.28048439 130.45324031 -90.65200607 129.84800881 -89.02255249 129.24542236 C-84.81883791 127.69075131 -80.62274544 126.11575141 -76.42578125 124.54296875 C-75.19454277 124.08253174 -75.19454277 124.08253174 -73.93843079 123.61279297 C-64.89804368 120.2259979 -55.93471487 116.65562667 -47 113 C-57.83897798 108.37369218 -68.82701082 104.13773711 -79.8125 99.875 C-82.58467712 98.79898458 -85.35667361 97.72251577 -88.12809753 96.64456177 C-89.83949342 95.97892171 -91.55131046 95.31436302 -93.2636261 94.65109253 C-97.8836294 92.85433363 -102.45561698 90.98050535 -107 89 C-107 88.67 -107 88.34 -107 88 C-99.24091884 87.87945201 -91.6056229 88.2304352 -83.875 88.875 C-82.76568115 88.96378418 -81.6563623 89.05256836 -80.51342773 89.14404297 C-77.00860623 89.42525899 -73.5042995 89.71235883 -70 90 C-66.46705514 90.28651995 -62.93401523 90.57180798 -59.40087891 90.85595703 C-57.21161969 91.03239141 -55.02248638 91.21039655 -52.83349609 91.39013672 C-51.84816895 91.47021973 -50.8628418 91.55030273 -49.84765625 91.6328125 C-48.98148682 91.70387207 -48.11531738 91.77493164 -47.22290039 91.84814453 C-45.48524782 91.96685073 -43.74170251 92 -42 92 C-46.64788037 86.7619126 -51.32646792 81.61286942 -56.32421875 76.70703125 C-58.11053443 74.88740432 -59.77477835 72.99546083 -61.4375 71.0625 C-63.85617779 68.25423653 -66.35899683 65.60029407 -69 63 C-72.24037576 59.80947618 -75.22945548 56.47887861 -78.19140625 53.03125 C-81.30504645 49.53428909 -84.65139835 46.27032265 -88 43 C-84.50853791 43 -83.33762249 43.76788104 -80.37109375 45.53515625 C-79.43064209 46.09025879 -78.49019043 46.64536133 -77.52124023 47.21728516 C-76.50360596 47.82620605 -75.48597168 48.43512695 -74.4375 49.0625 C-72.27125647 50.34316393 -70.10457371 51.62308512 -67.9375 52.90234375 C-66.23980469 53.9075708 -66.23980469 53.9075708 -64.5078125 54.93310547 C-58.67771131 58.37633061 -52.80565267 61.74720346 -46.9375 65.125 C-45.85073975 65.75156494 -44.76397949 66.37812988 -43.64428711 67.02368164 C-38.43537646 70.02613903 -33.22105982 73.0187308 -28 76 C-30.20435251 69.09862216 -32.40988836 62.19762328 -34.61621094 55.296875 C-35.36517542 52.95386123 -36.1138783 50.61076383 -36.86230469 48.26757812 C-37.94395714 44.88128485 -39.0265795 41.49530292 -40.109375 38.109375 C-40.43871033 37.07762146 -40.76804565 36.04586792 -41.10736084 34.98284912 C-41.42739075 33.9827179 -41.74742065 32.98258667 -42.07714844 31.95214844 C-42.54260071 30.49367493 -42.54260071 30.49367493 -43.01745605 29.0057373 C-43.71258871 26.87923073 -44.43154123 24.76044172 -45.16711426 22.64758301 C-45.54283569 21.56537476 -45.91855713 20.4831665 -46.30566406 19.36816406 C-46.65340881 18.38688538 -47.00115356 17.40560669 -47.35943604 16.39459229 C-48 14 -48 14 -47 12 C-40.30715427 20.96901353 -34.11001733 30.23224177 -27.9375 39.5625 C-26.03155773 42.4398725 -24.12406948 45.31621137 -22.21484375 48.19140625 C-21.76217133 48.87320953 -21.3094989 49.55501282 -20.84310913 50.25747681 C-17.31111691 55.56343666 -13.69855551 60.8084785 -10 66 C-5.9263052 44.11932112 -2.94382159 22.05636027 0 0 Z " fill="#FAC801" transform="translate(399,70)"/>
<path d="M0 0 C2.0381427 0.00316104 4.07482782 -0.02041861 6.11279297 -0.0456543 C32.45199992 -0.17424648 57.19803294 9.37104547 79.17138672 23.31567383 C77.17138672 24.31567383 77.17138672 24.31567383 74.39794922 23.42504883 C73.20943359 22.97645508 72.02091797 22.52786133 70.79638672 22.06567383 C42.73510811 12.22711578 10.14246104 13.87566452 -16.82861328 26.31567383 C-17.98490234 26.84032227 -19.14119141 27.3649707 -20.33251953 27.90551758 C-28.15741566 31.57023537 -35.08910351 35.92035789 -41.82861328 41.31567383 C-42.3698584 41.73945312 -42.91110352 42.16323242 -43.46875 42.59985352 C-67.63836823 61.64919437 -82.45104586 88.61251259 -87.41455078 118.88989258 C-89.36606573 136.09529809 -89.22708618 154.77341446 -83.82861328 171.31567383 C-83.60898926 171.99726563 -83.38936523 172.67885742 -83.16308594 173.38110352 C-81.59391195 178.1186097 -79.79510513 182.72998219 -77.82861328 187.31567383 C-77.32716797 188.48614258 -76.82572266 189.65661133 -76.30908203 190.86254883 C-62.41914119 220.73775006 -36.72921733 240.16013547 -6.82861328 252.31567383 C19.1410475 260.69394556 47.32325326 261.16713657 72.8671875 251.2097168 C74.61753398 250.53078684 76.39287868 249.91697893 78.17138672 249.31567383 C78.83138672 249.64567383 79.49138672 249.97567383 80.17138672 250.31567383 C50.75526437 269.41383083 14.62798976 279.85175473 -20.51611328 273.06567383 C-22.96129834 272.51544291 -25.39946224 271.93285227 -27.82861328 271.31567383 C-29.10865234 271.0140332 -30.38869141 270.71239258 -31.70751953 270.40161133 C-39.76925492 268.40041364 -47.29574624 265.80437551 -54.82861328 262.31567383 C-55.93849609 261.81293945 -57.04837891 261.31020508 -58.19189453 260.79223633 C-72.22836361 254.14091728 -83.7033534 245.04416981 -94.82861328 234.31567383 C-95.61880859 233.58864258 -96.40900391 232.86161133 -97.22314453 232.11254883 C-115.20234872 215.10944854 -128.4071786 189.58369875 -132.82861328 165.31567383 C-133.03099609 164.3127832 -133.23337891 163.30989258 -133.44189453 162.27661133 C-139.5388557 126.19255542 -132.1844953 88.54124291 -110.95361328 58.56567383 C-109.59990529 56.79915191 -108.22353675 55.04983458 -106.82861328 53.31567383 C-106.41885254 52.80053223 -106.0090918 52.28539062 -105.58691406 51.75463867 C-79.86625146 19.60619461 -41.38730797 -0.13350745 0 0 Z " fill="#FCCA00" transform="translate(260.82861328125,45.684326171875)"/>
<path d="M0 0 C0.33 0.66 0.66 1.32 1 2 C1.66 2.33 2.32 2.66 3 3 C1.02 5.97 1.02 5.97 -1 9 C-2.60031344 5.79937313 -1.03173691 3.27728194 0 0 Z " fill="#C8A015" transform="translate(353,275)"/>
</svg>
